<?xml version="1.0" encoding="UTF-8" standalone="no"?>
<svg
   xmlns:dc="http://purl.org/dc/elements/1.1/"
   xmlns:cc="http://creativecommons.org/ns#"
   xmlns:rdf="http://www.w3.org/1999/02/22-rdf-syntax-ns#"
   xmlns:svg="http://www.w3.org/2000/svg"
   xmlns="http://www.w3.org/2000/svg"
   viewBox="0 0 1002.6667 166.66667"
   height="166.66667"
   width="1002.6667"
   xml:space="preserve"
   id="svg2"
   version="1.1"><metadata
     id="metadata8"><rdf:RDF><cc:Work
         rdf:about=""><dc:format>image/svg+xml</dc:format><dc:type
           rdf:resource="http://purl.org/dc/dcmitype/StillImage" /></cc:Work></rdf:RDF></metadata><defs
     id="defs6" /><g
     transform="matrix(1.3333333,0,0,-1.3333333,0,166.66667)"
     id="g10"><g
       transform="scale(0.1)"
       id="g12"><path
         id="path14"
         style="fill:#231f20;fill-opacity:1;fill-rule:nonzero;stroke:none"
         d="M 7361.54,107.395 V 92.6406 h -24.77 V 21.3164 h -17.38 v 71.3242 h -25.69 v 14.7544 h 67.84" /><path
         id="path16"
         style="fill:#231f20;fill-opacity:1;fill-rule:nonzero;stroke:none"
         d="M 7403.36,21.3164 7388.14,90.957 V 21.3164 h -17.41 v 86.0626 h 25.47 l 15.85,-66.0938 15.83,66.0938 h 25.44 V 21.3164 h -17.37 V 90.957 l -15.22,-69.6406 h -17.37" /><path
         id="path18"
         style="fill:none;stroke:#231f20;stroke-width:18.67000008;stroke-linecap:butt;stroke-linejoin:miter;stroke-miterlimit:3.8636899;stroke-dasharray:none;stroke-opacity:1"
         d="M 4222.68,1108.3 H 7494.15" /><path
         id="path20"
         style="fill:none;stroke:#231f20;stroke-width:18.67000008;stroke-linecap:butt;stroke-linejoin:miter;stroke-miterlimit:3.8636899;stroke-dasharray:none;stroke-opacity:1"
         d="M 4168,413.695 H 7495.13" /><path
         id="path22"
         style="fill:#231f20;fill-opacity:1;fill-rule:evenodd;stroke:none"
         d="m 1767.54,3.95312 -13.61,41.39458 h -73.37 L 1666.02,3.95312 h -29.9 l 79.84,198.75788 h 7.13 L 1797.17,3.95312 Z M 1718.29,151.172 1687.7,65.0859 h 58.56 l -27.97,86.0861" /><path
         id="path24"
         style="fill:#231f20;fill-opacity:1;fill-rule:nonzero;stroke:none"
         d="m 2074.01,13 9.8,24.6719 c 5.02,-3.668 11.26,-6.7344 18.74,-9.1953 7.47,-2.461 14.17,-3.6875 20.08,-3.6875 10.48,0 18.89,2.8515 25.25,8.5664 6.35,5.7109 9.53,12.9843 9.53,21.8203 0,6.6015 -1.77,12.7383 -5.3,18.4023 -3.54,5.668 -12.43,11.8516 -26.67,18.543 l -15.85,7.3633 c -13.43,6.2496 -22.81,13.6606 -28.14,22.2266 -5.33,8.57 -7.99,18.883 -7.99,30.937 0,14.641 5.19,26.786 15.58,36.426 10.38,9.641 23.71,14.461 40,14.461 21.75,0 36.88,-3.539 45.38,-10.617 l -7.92,-23.379 c -3.57,2.617 -9.03,5.149 -16.37,7.582 -7.33,2.441 -14.13,3.66 -20.39,3.66 -9.13,0 -16.31,-2.593 -21.54,-7.769 -5.24,-5.18 -7.85,-11.832 -7.85,-19.957 0,-5 0.94,-9.555 2.81,-13.66 1.88,-4.11 4.5,-7.547 7.85,-10.313 3.35,-2.77 10.21,-6.652 20.58,-11.652 l 16.1,-7.633 c 13.4,-6.34 22.81,-13.9025 28.22,-22.6993 5.41,-8.793 8.11,-19.9727 8.11,-33.543 0,-14.7266 -5.92,-27.2266 -17.77,-37.4922 -11.86,-10.26562 -27.71,-15.402344 -47.56,-15.402344 -17.45,0 -32.34,4.113284 -44.68,12.339844" /><path
         id="path26"
         style="fill:#231f20;fill-opacity:1;fill-rule:nonzero;stroke:none"
         d="m 2471.06,13 9.8,24.6719 c 5.02,-3.668 11.26,-6.7344 18.74,-9.1953 7.47,-2.461 14.17,-3.6875 20.08,-3.6875 10.47,0 18.89,2.8515 25.25,8.5664 6.35,5.7109 9.53,12.9843 9.53,21.8203 0,6.6015 -1.76,12.7383 -5.3,18.4023 -3.54,5.668 -12.43,11.8516 -26.67,18.543 l -15.85,7.3633 c -13.43,6.2496 -22.81,13.6606 -28.14,22.2266 -5.33,8.57 -7.99,18.883 -7.99,30.937 0,14.641 5.19,26.786 15.57,36.426 10.38,9.641 23.72,14.461 40.01,14.461 21.75,0 36.88,-3.539 45.38,-10.617 l -7.92,-23.379 c -3.57,2.617 -9.03,5.149 -16.37,7.582 -7.33,2.441 -14.13,3.66 -20.39,3.66 -9.13,0 -16.31,-2.593 -21.54,-7.769 -5.24,-5.18 -7.86,-11.832 -7.86,-19.957 0,-5 0.95,-9.555 2.82,-13.66 1.88,-4.11 4.5,-7.547 7.84,-10.313 3.36,-2.77 10.22,-6.652 20.59,-11.652 l 16.09,-7.633 c 13.41,-6.34 22.82,-13.9025 28.23,-22.6993 5.41,-8.793 8.11,-19.9727 8.11,-33.543 0,-14.7266 -5.92,-27.2266 -17.77,-37.4922 -11.85,-10.26562 -27.71,-15.402344 -47.57,-15.402344 -17.44,0 -32.33,4.113284 -44.67,12.339844" /><path
         id="path28"
         style="fill:#231f20;fill-opacity:1;fill-rule:evenodd;stroke:none"
         d="m 2867.56,103.703 c 0,28.367 7.12,52.102 21.38,71.192 14.25,19.093 33.48,28.64 57.7,28.64 27.25,0 48.14,-8.789 62.66,-26.363 14.51,-17.578 21.77,-42.067 21.77,-73.469 0,-32.2069 -7.28,-57.4335 -21.84,-75.6757 -14.57,-18.24214 -35.43,-27.367144 -62.59,-27.367144 -24.76,0 -44.12,9.636744 -58.1,28.906244 -13.99,19.2734 -20.98,43.9844 -20.98,74.1366 z m 28.26,0 c 0,-22.4725 4.43,-41.2421 13.3,-56.3124 8.88,-15.0703 21.38,-22.6015 37.52,-22.6015 18.28,0 32.21,6.9101 41.8,20.7304 9.58,13.8203 14.38,33.2188 14.38,58.1835 0,50.473 -18.73,75.707 -56.18,75.707 -16.58,0 -29.2,-6.777 -37.85,-20.332 -8.65,-13.555 -12.97,-32.012 -12.97,-55.375" /><path
         id="path30"
         style="fill:#231f20;fill-opacity:1;fill-rule:nonzero;stroke:none"
         d="m 3452.2,192.84 -8.97,-22.891 c -8.57,6.305 -22.05,9.461 -40.44,9.461 -17.23,0 -31.04,-7.41 -41.44,-22.226 -10.4,-14.813 -15.6,-33.914 -15.6,-57.2973 0,-22.3125 5.33,-40.4062 15.99,-54.2812 10.65,-13.8789 24.42,-20.8164 41.28,-20.8164 18.37,0 32.51,6.4609 42.41,19.3828 l 14.73,-20.4805 C 3444.61,8.33984 3424.61,0.660156 3400.14,0.660156 c -25.63,0 -45.81,9.242184 -60.55,27.722644 -14.73,18.4766 -22.1,42.8477 -22.1,73.1092 0,29.285 7.86,53.61 23.59,72.985 15.72,19.371 36.05,29.058 60.99,29.058 21.35,0 38.07,-3.566 50.13,-10.695" /><path
         id="path32"
         style="fill:#231f20;fill-opacity:1;fill-rule:nonzero;stroke:none"
         d="m 3760.88,3.95312 h 26.8867 v 196.016 H 3760.88 Z" /><path
         id="path34"
         style="fill:#231f20;fill-opacity:1;fill-rule:evenodd;stroke:none"
         d="m 4209.56,3.95312 -13.6,41.39458 h -73.37 L 4108.05,3.95312 h -29.91 l 79.84,198.75788 h 7.14 L 4239.19,3.95312 Z m -49.24,147.21888 -30.6,-86.0861 h 58.56 l -27.96,86.0861" /><path
         id="path36"
         style="fill:#231f20;fill-opacity:1;fill-rule:nonzero;stroke:none"
         d="M 4573.38,175.844 V 3.95312 h -26.89 V 175.844 h -62.56 v 24.125 h 154.74 v -24.125 h -65.29" /><path
         id="path38"
         style="fill:#231f20;fill-opacity:1;fill-rule:nonzero;stroke:none"
         d="m 4930.86,3.95312 h 26.8867 v 196.016 H 4930.86 Z" /><path
         id="path40"
         style="fill:#231f20;fill-opacity:1;fill-rule:evenodd;stroke:none"
         d="m 5258.54,103.703 c 0,28.367 7.13,52.102 21.38,71.192 14.25,19.093 33.49,28.64 57.7,28.64 27.26,0 48.14,-8.789 62.66,-26.363 14.52,-17.578 21.78,-42.067 21.78,-73.469 0,-32.2069 -7.28,-57.4335 -21.85,-75.6757 -14.57,-18.24214 -35.42,-27.367144 -62.59,-27.367144 -24.75,0 -44.12,9.636744 -58.1,28.906244 -13.98,19.2734 -20.98,43.9844 -20.98,74.1366 z m 28.26,0 c 0,-22.4725 4.44,-41.2421 13.31,-56.3124 8.87,-15.0703 21.38,-22.6015 37.51,-22.6015 18.28,0 32.22,6.9101 41.8,20.7304 9.59,13.8203 14.38,33.2188 14.38,58.1835 0,50.473 -18.72,75.707 -56.18,75.707 -16.58,0 -29.2,-6.777 -37.84,-20.332 -8.66,-13.555 -12.98,-32.012 -12.98,-55.375" /><path
         id="path42"
         style="fill:#231f20;fill-opacity:1;fill-rule:nonzero;stroke:none"
         d="M 5844.83,1.21094 5743.32,144.59 V 3.95312 H 5717.8 V 199.969 h 10.7 L 5827.27,64.2656 V 199.969 h 25.52 V 1.21094 h -7.96" /><path
         id="path44"
         style="fill:#231f20;fill-opacity:1;fill-rule:nonzero;stroke:none"
         d="m 4163.35,1245.11 h -352.64 c 0,0 -45.37,-98.07 -52.12,-112.68 -6.68,14.62 -51.41,112.68 -51.41,112.68 H 3354.13 V 542.441 c 0,-68.941 42.14,-107.086 87.7,-138.035 83.8,-57.515 202.25,-65.269 307.06,-65.269 95.51,0 226.32,0 327.84,64.425 44.95,28.422 90.91,67.02 90.91,137.723 v 703.825 h -4.29" /><path
         id="path46"
         style="fill:#edac09;fill-opacity:1;fill-rule:nonzero;stroke:none"
         d="m 3462.02,1140.73 h 198.33 l 98.98,-177.781 99.75,178.551 h 199.11 v -50.24 c 0,-1.55 -8.89,-2.71 -15.08,-8.51 -5.41,-5.02 -10.82,-11.97 -10.82,-20.48 V 912.316 c 0,-9.265 4.63,-12.367 9.28,-17.007 6.18,-6.184 16.62,-8.504 16.62,-10.055 v -48.309 h -189.44 v 46.77 c 0,5.019 9.66,7.73 14.69,12.758 4.64,4.629 11.21,8.113 11.21,18.164 V 1024.39 L 3782.52,837.34 h -47.93 L 3624.4,1022.46 V 914.637 c 0,-8.895 4.25,-13.141 9.67,-18.551 5.4,-5.414 16.23,-8.895 16.23,-11.207 V 837.34 h -188.28 v 49.09 c 0,1.539 9.27,4.242 15.46,11.582 5.8,6.582 10.43,12.023 10.43,21.261 v 140.297 c 0,8.22 -5.02,12.76 -9.27,18.94 -5.42,8.11 -16.62,11.97 -16.62,13.13 v 49.09" /><path
         id="path48"
         style="fill:#edac09;fill-opacity:1;fill-rule:nonzero;stroke:none"
         d="m 3462.02,751.152 h 204.52 v -47.531 c 0,-2.711 -9.66,-4.637 -15.08,-9.668 -6.57,-5.793 -10.82,-13.707 -10.82,-23.961 v -65.308 c 0,-14.321 8.11,-25.512 17.79,-32.086 25.9,-18.551 59.58,-19.969 98.97,-20.098 40.78,-0.133 75.01,1.938 102.46,20.867 10.43,6.969 16.62,17.75 16.62,31.703 v 64.922 c 0,9.629 -1.16,14.297 -8.52,23.196 -4.23,5.406 -17.77,8.5 -17.77,11.589 v 46.375 h 208.39 v -47.531 c 0,-2.324 -11.46,-4.523 -16.63,-10.059 -6.98,-7.449 -9.66,-14.128 -9.66,-24.351 V 605.07 c 0,-40.371 -5.8,-75.379 -37.13,-96.636 -62.64,-42.895 -131.82,-49.079 -238.15,-50.235 -92.02,-0.777 -187.9,15.461 -232.36,50.235 -27.84,21.648 -36.74,56.32 -36.74,96.636 v 64.141 c 0,10.832 -5.8,18.18 -9.65,23.977 -5.04,7.722 -16.24,8.5 -16.24,10.82 v 47.144" /><path
         id="path50"
         style="fill:#edac09;fill-opacity:1;fill-rule:nonzero;stroke:none"
         d="M 195.578,527.738 H 22.5156 V 634.426 H 56.8672 V 866.711 H 21.5469 V 973.789 H 290.945 L 356.77,801.676 424.203,973.789 H 691.988 V 866.711 h -35 V 634.426 h 35.965 V 527.738 H 459.84 v 106.711 h 35.637 V 883.43 L 360.621,527.738 H 293.832 L 160.258,880.219 v -245.77 h 35.32 V 527.738" /><path
         id="path52"
         style="fill:none;stroke:#231f20;stroke-width:28.36700058;stroke-linecap:butt;stroke-linejoin:miter;stroke-miterlimit:3.8636899;stroke-dasharray:none;stroke-opacity:1"
         d="M 195.578,527.738 H 22.5156 V 634.426 H 56.8672 V 866.711 H 21.5469 V 973.789 H 290.945 L 356.77,801.676 424.203,973.789 H 691.988 V 866.711 h -35 V 634.426 h 35.965 V 527.738 H 459.84 v 106.711 h 35.637 V 883.43 L 360.621,527.738 H 293.832 L 160.258,880.219 v -245.77 h 35.32 z" /><path
         id="path54"
         style="fill:#edac09;fill-opacity:1;fill-rule:nonzero;stroke:none"
         d="M 1049.98,527.738 H 795.602 V 634.52 h 41.062 V 867.008 H 795.602 V 973.789 H 1049.98 V 867.008 h -40.75 V 634.52 h 40.75 V 527.738" /><path
         id="path56"
         style="fill:none;stroke:#231f20;stroke-width:28.36700058;stroke-linecap:butt;stroke-linejoin:miter;stroke-miterlimit:3.8636899;stroke-dasharray:none;stroke-opacity:1"
         d="M 1049.98,527.738 H 795.602 V 634.52 h 41.062 V 867.008 H 795.602 V 973.789 H 1049.98 V 867.008 h -40.75 V 634.52 h 40.75 z" /><path
         id="path58"
         style="fill:#edac09;fill-opacity:1;fill-rule:nonzero;stroke:none"
         d="m 1587.36,527.738 h -440.67 v 101.946 l 219.85,246.222 h -111.69 v -55.179 h -102.38 v 153.062 h 433.29 v -90.41 L 1354.67,625.621 h 128.71 v 61.094 h 103.98 V 527.738" /><path
         id="path60"
         style="fill:none;stroke:#231f20;stroke-width:28.36700058;stroke-linecap:butt;stroke-linejoin:miter;stroke-miterlimit:3.8636899;stroke-dasharray:none;stroke-opacity:1"
         d="m 1587.36,527.738 h -440.67 v 101.946 l 219.85,246.222 h -111.69 v -55.179 h -102.38 v 153.062 h 433.29 v -90.41 L 1354.67,625.621 h 128.71 v 61.094 h 103.98 z" /><path
         id="path62"
         style="fill:#edac09;fill-opacity:1;fill-rule:nonzero;stroke:none"
         d="m 2120.29,527.738 h -440.68 v 101.946 l 219.85,246.222 h -111.69 v -55.179 h -102.38 v 153.062 h 433.29 v -90.41 L 1887.59,625.621 h 128.71 v 61.094 h 103.99 V 527.738" /><path
         id="path64"
         style="fill:none;stroke:#231f20;stroke-width:28.36700058;stroke-linecap:butt;stroke-linejoin:miter;stroke-miterlimit:3.8636899;stroke-dasharray:none;stroke-opacity:1"
         d="m 2120.29,527.738 h -440.68 v 101.946 l 219.85,246.222 h -111.69 v -55.179 h -102.38 v 153.062 h 433.29 v -90.41 L 1887.59,625.621 h 128.71 v 61.094 h 103.99 z" /><path
         id="path66"
         style="fill:#edac09;fill-opacity:1;fill-rule:evenodd;stroke:none"
         d="m 2363.45,751.914 c 0,-49.707 4.81,-83.242 14.44,-100.602 9.2,-17.566 23.64,-26.347 43.32,-26.347 19.47,0 34.02,8.461 43.65,25.39 9.62,17.137 14.44,50.989 14.44,101.559 0,49.063 -4.71,82.484 -14.13,100.274 -9.19,17.562 -23.85,26.347 -43.96,26.347 -19.26,0 -33.69,-8.465 -43.32,-25.394 -9.63,-16.922 -14.44,-50.664 -14.44,-101.227 z m -193.82,0 c 0,37.238 9.09,73.301 27.28,108.188 17.96,34.664 45.88,63.875 83.75,87.636 13.47,8.332 27.32,14.957 41.55,19.871 14.23,4.914 29.68,8.703 46.37,11.371 16.69,2.668 34.23,4.004 52.63,4.004 80.01,0 141.94,-23.39 185.79,-70.168 21.82,-23.113 38.3,-48.156 49.43,-75.125 11.12,-26.964 16.68,-55.539 16.68,-85.714 0,-62.278 -22.67,-116.426 -68.02,-162.446 -45.36,-46.011 -106.65,-69.019 -183.88,-69.019 -74.66,0 -135.21,21.574 -181.63,64.718 -46.63,43.036 -69.95,98.594 -69.95,166.684" /><path
         id="path68"
         style="fill:none;stroke:#231f20;stroke-width:28.36700058;stroke-linecap:butt;stroke-linejoin:miter;stroke-miterlimit:3.8636899;stroke-dasharray:none;stroke-opacity:1"
         d="m 2363.45,751.914 c 0,-49.707 4.81,-83.242 14.44,-100.602 9.2,-17.566 23.64,-26.347 43.32,-26.347 19.47,0 34.02,8.461 43.65,25.39 9.62,17.137 14.44,50.989 14.44,101.559 0,49.063 -4.71,82.484 -14.13,100.274 -9.19,17.562 -23.85,26.347 -43.96,26.347 -19.26,0 -33.69,-8.465 -43.32,-25.394 -9.63,-16.922 -14.44,-50.664 -14.44,-101.227 z" /><path
         id="path70"
         style="fill:none;stroke:#231f20;stroke-width:28.36700058;stroke-linecap:butt;stroke-linejoin:miter;stroke-miterlimit:3.8636899;stroke-dasharray:none;stroke-opacity:1"
         d="m 2169.63,751.914 c 0,37.238 9.09,73.301 27.28,108.188 17.96,34.664 45.88,63.875 83.75,87.636 13.47,8.332 27.32,14.957 41.55,19.871 14.23,4.914 29.68,8.703 46.37,11.371 16.69,2.668 34.23,4.004 52.63,4.004 80.01,0 141.94,-23.39 185.79,-70.168 21.82,-23.113 38.3,-48.156 49.43,-75.125 11.12,-26.964 16.68,-55.539 16.68,-85.714 0,-62.278 -22.67,-116.426 -68.02,-162.446 -45.36,-46.011 -106.65,-69.019 -183.88,-69.019 -74.66,0 -135.21,21.574 -181.63,64.718 -46.63,43.036 -69.95,98.594 -69.95,166.684 z" /><path
         id="path72"
         style="fill:#edac09;fill-opacity:1;fill-rule:nonzero;stroke:none"
         d="m 2755.3,866.711 h -34.32 v 107.078 h 228.39 V 866.711 H 2928.2 V 716.316 c 0,-35.91 3.42,-60.39 10.26,-73.429 6.84,-12.825 19.14,-19.239 36.9,-19.239 14.75,0 25.44,5.454 32.07,16.352 6.62,10.688 9.94,32.602 9.94,65.734 v 160.977 h -22.45 v 107.078 h 167.76 V 866.711 h -35.29 V 705.148 c 0,-41.242 -5.98,-75.003 -17.96,-101.289 -11.97,-26.07 -31.86,-46.48 -59.66,-61.226 -27.8,-14.746 -62.01,-22.121 -102.65,-22.121 -32.71,0 -61.69,3.953 -86.92,11.855 -25.67,7.688 -45.98,19.43 -60.95,35.231 -14.97,15.593 -25.98,34.496 -33.04,56.707 -7.27,21.59 -10.91,54.722 -10.91,99.402 v 143.004" /><path
         id="path74"
         style="fill:none;stroke:#231f20;stroke-width:28.36700058;stroke-linecap:butt;stroke-linejoin:miter;stroke-miterlimit:3.8636899;stroke-dasharray:none;stroke-opacity:1"
         d="m 2755.3,866.711 h -34.32 v 107.078 h 228.39 V 866.711 H 2928.2 V 716.316 c 0,-35.91 3.42,-60.39 10.26,-73.429 6.84,-12.825 19.14,-19.239 36.9,-19.239 14.75,0 25.44,5.454 32.07,16.352 6.62,10.688 9.94,32.602 9.94,65.734 v 160.977 h -22.45 v 107.078 h 167.76 V 866.711 h -35.29 V 705.148 c 0,-41.242 -5.98,-75.003 -17.96,-101.289 -11.97,-26.07 -31.86,-46.48 -59.66,-61.226 -27.8,-14.746 -62.01,-22.121 -102.65,-22.121 -32.71,0 -61.69,3.953 -86.92,11.855 -25.67,7.688 -45.98,19.43 -60.95,35.231 -14.97,15.593 -25.98,34.496 -33.04,56.707 -7.27,21.59 -10.91,54.722 -10.91,99.402 z" /><path
         id="path76"
         style="fill:#edac09;fill-opacity:1;fill-rule:evenodd;stroke:none"
         d="m 4552.32,863.965 -41.36,-121.469 h 78.62 z M 4510.96,536.387 H 4336.97 V 641.32 h 33.47 l 82.42,228.461 h -35.37 v 105.317 h 315.76 V 869.781 h -35.36 l 84,-228.461 h 32.2 V 536.387 h -229.25 v 96.484 h 38.53 l -16.74,55.352 h -112.41 l -19.26,-55.352 h 36 v -96.484" /><path
         id="path78"
         style="fill:none;stroke:#231f20;stroke-width:28.36700058;stroke-linecap:butt;stroke-linejoin:miter;stroke-miterlimit:3.8636899;stroke-dasharray:none;stroke-opacity:1"
         d="m 4552.32,863.965 -41.36,-121.469 h 78.62 z" /><path
         id="path80"
         style="fill:none;stroke:#231f20;stroke-width:28.36700058;stroke-linecap:butt;stroke-linejoin:miter;stroke-miterlimit:3.8636899;stroke-dasharray:none;stroke-opacity:1"
         d="M 4510.96,536.387 H 4336.97 V 641.32 h 33.47 l 82.42,228.461 h -35.37 v 105.317 h 315.76 V 869.781 h -35.36 l 84,-228.461 h 32.2 V 536.387 h -229.25 v 96.484 h 38.53 l -16.74,55.352 h -112.41 l -19.26,-55.352 h 36 z" /><path
         id="path82"
         style="fill:#edac09;fill-opacity:1;fill-rule:nonzero;stroke:none"
         d="M 5304.59,536.387 H 4886.95 V 641.32 h 39.42 v 228.461 h -39.42 v 105.317 h 250.77 V 869.781 h -41.64 V 641.703 h 103.78 v 69.781 h 104.73 V 536.387" /><path
         id="path84"
         style="fill:none;stroke:#231f20;stroke-width:28.36700058;stroke-linecap:butt;stroke-linejoin:miter;stroke-miterlimit:3.8636899;stroke-dasharray:none;stroke-opacity:1"
         d="M 5304.59,536.387 H 4886.95 V 641.32 h 39.42 v 228.461 h -39.42 v 105.317 h 250.77 V 869.781 h -41.64 V 641.703 h 103.78 v 69.781 h 104.73 z" /><path
         id="path86"
         style="fill:#edac09;fill-opacity:1;fill-rule:nonzero;stroke:none"
         d="m 5409.95,869.781 h -33.76 v 105.317 h 224.64 V 869.781 h -20.82 V 721.863 c 0,-35.32 3.37,-59.398 10.09,-72.226 6.73,-12.61 18.83,-18.918 36.29,-18.918 14.51,0 25.02,5.363 31.54,16.082 6.52,10.515 9.78,32.062 9.78,64.652 v 158.328 h -22.08 v 105.317 h 165.01 V 869.781 h -34.71 V 710.879 c 0,-40.567 -5.89,-73.774 -17.67,-99.625 -11.78,-25.641 -31.33,-45.715 -58.68,-60.219 -27.34,-14.504 -60.99,-21.754 -100.96,-21.754 -32.18,0 -60.68,3.887 -85.5,11.66 -25.24,7.559 -45.23,19.106 -59.94,34.649 -14.72,15.336 -25.56,33.93 -32.5,55.777 -7.15,21.235 -10.73,53.821 -10.73,97.762 v 140.652" /><path
         id="path88"
         style="fill:none;stroke:#231f20;stroke-width:28.36700058;stroke-linecap:butt;stroke-linejoin:miter;stroke-miterlimit:3.8636899;stroke-dasharray:none;stroke-opacity:1"
         d="m 5409.95,869.781 h -33.76 v 105.317 h 224.64 V 869.781 h -20.82 V 721.863 c 0,-35.32 3.37,-59.398 10.09,-72.226 6.73,-12.61 18.83,-18.918 36.29,-18.918 14.51,0 25.02,5.363 31.54,16.082 6.52,10.515 9.78,32.062 9.78,64.652 v 158.328 h -22.08 v 105.317 h 165.01 V 869.781 h -34.71 V 710.879 c 0,-40.567 -5.89,-73.774 -17.67,-99.625 -11.78,-25.641 -31.33,-45.715 -58.68,-60.219 -27.34,-14.504 -60.99,-21.754 -100.96,-21.754 -32.18,0 -60.68,3.887 -85.5,11.66 -25.24,7.559 -45.23,19.106 -59.94,34.649 -14.72,15.336 -25.56,33.93 -32.5,55.777 -7.15,21.235 -10.73,53.821 -10.73,97.762 z" /><path
         id="path90"
         style="fill:#edac09;fill-opacity:1;fill-rule:nonzero;stroke:none"
         d="M 6070.3,536.387 H 5900.08 V 641.32 h 33.79 v 228.461 h -34.74 v 105.317 h 264.98 l 64.74,-169.282 66.32,169.282 h 263.39 V 869.781 h -34.43 V 641.32 h 35.38 V 536.387 H 6330.23 V 641.34 h 35.05 v 244.887 l -132.65,-349.84 h -65.68 L 6035.56,883.066 V 641.34 h 34.74 V 536.387" /><path
         id="path92"
         style="fill:none;stroke:#231f20;stroke-width:28.36700058;stroke-linecap:butt;stroke-linejoin:miter;stroke-miterlimit:3.8636899;stroke-dasharray:none;stroke-opacity:1"
         d="M 6070.3,536.387 H 5900.08 V 641.32 h 33.79 v 228.461 h -34.74 v 105.317 h 264.98 l 64.74,-169.282 66.32,169.282 h 263.39 V 869.781 h -34.43 V 641.32 h 35.38 V 536.387 H 6330.23 V 641.34 h 35.05 v 244.887 l -132.65,-349.84 h -65.68 L 6035.56,883.066 V 641.34 h 34.74 z" /><path
         id="path94"
         style="fill:#edac09;fill-opacity:1;fill-rule:nonzero;stroke:none"
         d="M 6829.89,536.387 H 6649.55 V 641.32 h 38.52 v 228.461 h -38.52 v 105.317 h 208.13 l 159.81,-229.371 v 124.054 h -35.69 v 105.317 h 177.18 V 869.781 h -38.21 V 530.574 H 6976.12 L 6791.04,796.125 V 641.48 h 38.85 V 536.387" /><path
         id="path96"
         style="fill:none;stroke:#231f20;stroke-width:28.36700058;stroke-linecap:butt;stroke-linejoin:miter;stroke-miterlimit:3.8636899;stroke-dasharray:none;stroke-opacity:1"
         d="M 6829.89,536.387 H 6649.55 V 641.32 h 38.52 v 228.461 h -38.52 v 105.317 h 208.13 l 159.81,-229.371 v 124.054 h -35.69 v 105.317 h 177.18 V 869.781 h -38.21 V 530.574 H 6976.12 L 6791.04,796.125 V 641.48 h 38.85 z" /><path
         id="path98"
         style="fill:#edac09;fill-opacity:1;fill-rule:nonzero;stroke:none"
         d="M 7495.64,536.387 H 7245.45 V 641.41 h 40.38 v 228.664 h -40.38 v 105.024 h 250.19 V 870.074 h -40.07 V 641.41 h 40.07 V 536.387" /><path
         id="path100"
         style="fill:none;stroke:#231f20;stroke-width:28.36700058;stroke-linecap:butt;stroke-linejoin:miter;stroke-miterlimit:3.8636899;stroke-dasharray:none;stroke-opacity:1"
         d="M 7495.64,536.387 H 7245.45 V 641.41 h 40.38 v 228.664 h -40.38 v 105.024 h 250.19 V 870.074 h -40.07 V 641.41 h 40.07 z" /><path
         id="path102"
         style="fill:none;stroke:#231f20;stroke-width:18.67000008;stroke-linecap:butt;stroke-linejoin:miter;stroke-miterlimit:3.8636899;stroke-dasharray:none;stroke-opacity:1"
         d="M 3288.03,1108.3 H 18.6602" /><path
         id="path104"
         style="fill:none;stroke:#231f20;stroke-width:18.67000008;stroke-linecap:butt;stroke-linejoin:miter;stroke-miterlimit:3.8636899;stroke-dasharray:none;stroke-opacity:1"
         d="M 3353.55,413.695 H 18.6602" /></g></g></svg>